<svg width="283" height="126" viewBox="0 0 283 126" fill="none"
    xmlns="http://www.w3.org/2000/svg">
    <g filter="url(#filter0_d_1_706)">
        <rect x="16" y="10.9089" width="256" height="99.0753" rx="16.6234" fill="white" />
        <path d="M74.3544 27.8937L75.4652 21.1234H76.3908L75.2801 27.8937H74.3544ZM71.3032 26.1482L71.4586 25.2226H76.6685L76.5131 26.1482H71.3032ZM71.9743 27.8937L73.085 21.1234H74.0106L72.8999 27.8937H71.9743ZM71.6966 23.7945L71.8487 22.8689H77.0586L76.9065 23.7945H71.6966ZM80.1338 27.9862C79.693 27.9862 79.2985 27.9036 78.9503 27.7383C78.6021 27.5708 78.3255 27.3416 78.1206 27.0507C77.9178 26.7598 77.8098 26.427 77.7966 26.0524H78.9867C79.0087 26.33 79.1288 26.557 79.347 26.7333C79.5652 26.9075 79.8274 26.9945 80.1338 26.9945C80.374 26.9945 80.5878 26.9394 80.7751 26.8292C80.9624 26.719 81.1101 26.5659 81.2181 26.3697C81.3261 26.1736 81.379 25.9499 81.3768 25.6986C81.379 25.443 81.325 25.216 81.2148 25.0176C81.1046 24.8193 80.9536 24.6639 80.7619 24.5515C80.5701 24.4369 80.3498 24.3796 80.1007 24.3796C79.898 24.3774 79.6985 24.4149 79.5024 24.492C79.3062 24.5692 79.1509 24.6705 79.0363 24.7962L77.9288 24.6143L78.2825 21.1234H82.2098V22.1482H79.2974L79.1024 23.9433H79.142C79.2677 23.7956 79.4451 23.6733 79.6743 23.5763C79.9035 23.4771 80.1547 23.4276 80.428 23.4276C80.8379 23.4276 81.2038 23.5245 81.5255 23.7185C81.8473 23.9102 82.1007 24.1747 82.2858 24.5119C82.471 24.849 82.5635 25.2347 82.5635 25.6689C82.5635 26.1163 82.46 26.5152 82.2528 26.8656C82.0478 27.2138 81.7624 27.4882 81.3966 27.6887C81.033 27.8871 80.612 27.9862 80.1338 27.9862ZM83.7371 27.8937V21.1234H86.2759C86.796 21.1234 87.2324 21.2138 87.585 21.3945C87.9398 21.5752 88.2076 21.8287 88.3883 22.1548C88.5712 22.4788 88.6627 22.8568 88.6627 23.2887C88.6627 23.7229 88.5701 24.0997 88.385 24.4193C88.2021 24.7367 87.9321 24.9824 87.5751 25.1565C87.2181 25.3284 86.7795 25.4143 86.2594 25.4143H84.4511V24.3962H86.0941C86.3982 24.3962 86.6473 24.3543 86.8412 24.2705C87.0352 24.1846 87.1784 24.0601 87.271 23.897C87.3657 23.7317 87.4131 23.5289 87.4131 23.2887C87.4131 23.0485 87.3657 22.8435 87.271 22.6738C87.1762 22.5019 87.0319 22.3719 86.8379 22.2838C86.644 22.1934 86.3938 22.1482 86.0875 22.1482H84.9635V27.8937H83.7371ZM87.2346 24.8259L88.9106 27.8937H87.542L85.8958 24.8259H87.2346ZM92.0759 21.0309C92.3999 21.0331 92.715 21.0904 93.0214 21.2028C93.3299 21.313 93.6076 21.4937 93.8544 21.7449C94.1013 21.994 94.2974 22.3278 94.4429 22.7466C94.5883 23.1653 94.6611 23.6832 94.6611 24.3003C94.6633 24.8821 94.6015 25.4022 94.4759 25.8606C94.3525 26.3168 94.1751 26.7025 93.9437 27.0176C93.7123 27.3328 93.4335 27.573 93.1073 27.7383C92.7812 27.9036 92.4142 27.9862 92.0065 27.9862C91.579 27.9862 91.1999 27.9025 90.8693 27.735C90.5409 27.5675 90.2754 27.3383 90.0726 27.0474C89.8699 26.7565 89.7453 26.4237 89.6991 26.049H90.9057C90.9674 26.3179 91.093 26.5317 91.2825 26.6904C91.4743 26.8468 91.7156 26.9251 92.0065 26.9251C92.4759 26.9251 92.8374 26.7212 93.0908 26.3135C93.3442 25.9058 93.471 25.3394 93.471 24.6143H93.4247C93.3167 24.8083 93.1768 24.9758 93.0049 25.1168C92.833 25.2557 92.6379 25.3625 92.4197 25.4375C92.2038 25.5124 91.9745 25.5499 91.7321 25.5499C91.3354 25.5499 90.9784 25.4551 90.6611 25.2656C90.3459 25.076 90.0958 24.816 89.9106 24.4854C89.7277 24.1548 89.6352 23.7769 89.633 23.3515C89.633 22.9108 89.7343 22.5152 89.9371 22.1648C90.142 21.8121 90.4274 21.5344 90.7933 21.3317C91.1591 21.1267 91.5867 21.0265 92.0759 21.0309ZM92.0792 22.0226C91.8412 22.0226 91.6263 22.081 91.4346 22.1978C91.2451 22.3124 91.0952 22.4689 90.985 22.6672C90.877 22.8634 90.823 23.0827 90.823 23.3251C90.8252 23.5653 90.8792 23.7835 90.985 23.9796C91.093 24.1758 91.2396 24.3311 91.4247 24.4457C91.612 24.5603 91.8258 24.6176 92.066 24.6176C92.2445 24.6176 92.4109 24.5835 92.5652 24.5152C92.7195 24.4468 92.8539 24.3521 92.9685 24.2309C93.0853 24.1075 93.1757 23.9675 93.2396 23.811C93.3057 23.6546 93.3376 23.4893 93.3354 23.3152C93.3354 23.0838 93.2803 22.87 93.1701 22.6738C93.0622 22.4777 92.9134 22.3201 92.7239 22.2011C92.5365 22.0821 92.3217 22.0226 92.0792 22.0226ZM100.364 23.2854C100.308 23.1069 100.232 22.9471 100.135 22.8061C100.041 22.6628 99.9261 22.5405 99.7916 22.4391C99.6594 22.3378 99.5073 22.2617 99.3354 22.211C99.1635 22.1581 98.9762 22.1317 98.7734 22.1317C98.4098 22.1317 98.0858 22.2232 97.8015 22.4061C97.5172 22.589 97.2936 22.8579 97.1305 23.2127C96.9696 23.5653 96.8891 23.9951 96.8891 24.5019C96.8891 25.0132 96.9696 25.4463 97.1305 25.8011C97.2914 26.1559 97.515 26.4259 97.8015 26.611C98.088 26.794 98.4208 26.8854 98.7999 26.8854C99.1437 26.8854 99.4412 26.8193 99.6925 26.6871C99.9459 26.5548 100.141 26.3675 100.278 26.1251C100.414 25.8805 100.483 25.594 100.483 25.2656L100.76 25.3086H98.9222V24.3499H101.669V25.1631C101.669 25.7427 101.546 26.2441 101.299 26.6672C101.052 27.0904 100.713 27.4165 100.281 27.6457C99.8489 27.8727 99.3531 27.9862 98.7933 27.9862C98.1696 27.9862 97.6219 27.8463 97.1503 27.5664C96.6809 27.2843 96.3139 26.8843 96.0495 26.3664C95.7872 25.8463 95.6561 25.2292 95.6561 24.5152C95.6561 23.9686 95.7332 23.4805 95.8875 23.0507C96.044 22.621 96.2622 22.2562 96.542 21.9565C96.8219 21.6546 97.1503 21.4254 97.5272 21.2689C97.904 21.1102 98.3139 21.0309 98.7569 21.0309C99.1316 21.0309 99.4809 21.086 99.8049 21.1962C100.129 21.3041 100.416 21.4584 100.668 21.659C100.921 21.8595 101.129 22.0975 101.292 22.373C101.456 22.6485 101.562 22.9526 101.613 23.2854H100.364ZM105.196 27.9862C104.704 27.9862 104.268 27.9036 103.887 27.7383C103.508 27.573 103.21 27.3471 102.994 27.0606C102.78 26.7719 102.675 26.4446 102.677 26.0788C102.675 25.7945 102.736 25.5333 102.862 25.2953C102.987 25.0573 103.157 24.859 103.371 24.7003C103.587 24.5394 103.827 24.4369 104.092 24.3929V24.3466C103.743 24.2694 103.461 24.092 103.245 23.8143C103.032 23.5344 102.926 23.2116 102.928 22.8457C102.926 22.4975 103.023 22.1868 103.219 21.9135C103.415 21.6402 103.684 21.4254 104.026 21.2689C104.367 21.1102 104.757 21.0309 105.196 21.0309C105.63 21.0309 106.017 21.1102 106.356 21.2689C106.698 21.4254 106.967 21.6402 107.163 21.9135C107.361 22.1868 107.46 22.4975 107.46 22.8457C107.46 23.2116 107.351 23.5344 107.133 23.8143C106.917 24.092 106.638 24.2694 106.297 24.3466V24.3929C106.561 24.4369 106.799 24.5394 107.011 24.7003C107.224 24.859 107.394 25.0573 107.52 25.2953C107.648 25.5333 107.711 25.7945 107.711 26.0788C107.711 26.4446 107.603 26.7719 107.387 27.0606C107.172 27.3471 106.874 27.573 106.495 27.7383C106.118 27.9036 105.685 27.9862 105.196 27.9862ZM105.196 27.0408C105.449 27.0408 105.67 26.9978 105.857 26.9119C106.044 26.8237 106.19 26.7003 106.293 26.5416C106.397 26.3829 106.45 26.2 106.452 25.9929C106.45 25.7769 106.394 25.5862 106.283 25.4209C106.175 25.2535 106.027 25.1223 105.837 25.0276C105.65 24.9328 105.436 24.8854 105.196 24.8854C104.953 24.8854 104.737 24.9328 104.548 25.0276C104.358 25.1223 104.208 25.2535 104.098 25.4209C103.99 25.5862 103.937 25.7769 103.94 25.9929C103.937 26.2 103.988 26.3829 104.092 26.5416C104.195 26.6981 104.341 26.8204 104.528 26.9086C104.718 26.9967 104.94 27.0408 105.196 27.0408ZM105.196 23.9565C105.403 23.9565 105.586 23.9146 105.745 23.8309C105.905 23.7471 106.032 23.6303 106.125 23.4805C106.217 23.3306 106.265 23.1576 106.267 22.9614C106.265 22.7675 106.218 22.5978 106.128 22.4524C106.038 22.3047 105.912 22.1912 105.751 22.1119C105.59 22.0303 105.405 21.9895 105.196 21.9895C104.982 21.9895 104.794 22.0303 104.63 22.1119C104.47 22.1912 104.344 22.3047 104.254 22.4524C104.165 22.5978 104.122 22.7675 104.125 22.9614C104.122 23.1576 104.167 23.3306 104.257 23.4805C104.349 23.6281 104.476 23.7449 104.637 23.8309C104.8 23.9146 104.986 23.9565 105.196 23.9565ZM109.046 27.8937L111.926 22.1945V22.1482H108.583V21.1234H113.195V22.1714L110.319 27.8937H109.046ZM114.328 27.8937V21.1234H116.867C117.387 21.1234 117.823 21.2138 118.176 21.3945C118.531 21.5752 118.799 21.8287 118.979 22.1548C119.162 22.4788 119.254 22.8568 119.254 23.2887C119.254 23.7229 119.161 24.0997 118.976 24.4193C118.793 24.7367 118.523 24.9824 118.166 25.1565C117.809 25.3284 117.37 25.4143 116.85 25.4143H115.042V24.3962H116.685C116.989 24.3962 117.238 24.3543 117.432 24.2705C117.626 24.1846 117.769 24.0601 117.862 23.897C117.957 23.7317 118.004 23.5289 118.004 23.2887C118.004 23.0485 117.957 22.8435 117.862 22.6738C117.767 22.5019 117.623 22.3719 117.429 22.2838C117.235 22.1934 116.985 22.1482 116.678 22.1482H115.554V27.8937H114.328ZM117.826 24.8259L119.502 27.8937H118.133L116.487 24.8259H117.826Z" fill="#21252C" />
        <path d="M72.012 39.8937V39.4282H73.0826V35.8642L72.2381 36.3961L72.0054 35.9905L73.2355 35.2059H73.6278V39.4282H74.6319V39.8937H72.012ZM77.1693 39.9535C76.6329 39.9535 76.2251 39.7474 75.9458 39.3351C75.6666 38.9229 75.5269 38.3266 75.5269 37.5465C75.5269 36.7618 75.6666 36.1656 75.9458 35.7578C76.2251 35.35 76.6329 35.146 77.1693 35.146C77.7101 35.146 78.118 35.35 78.3928 35.7578C78.6721 36.1612 78.8117 36.7552 78.8117 37.5398C78.8117 38.3244 78.6699 38.9229 78.3861 39.3351C78.1069 39.7474 77.7013 39.9535 77.1693 39.9535ZM77.1693 39.4814C77.5417 39.4814 77.8165 39.324 77.9938 39.0093C78.1756 38.6946 78.2665 38.2047 78.2665 37.5398C78.2665 36.8749 78.1778 36.3895 78.0005 36.0836C77.8232 35.7733 77.5461 35.6181 77.1693 35.6181C76.797 35.6181 76.5199 35.7733 76.3381 36.0836C76.1608 36.3939 76.0722 36.8793 76.0722 37.5398C76.0722 38.2047 76.1608 38.6946 76.3381 39.0093C76.5199 39.324 76.797 39.4814 77.1693 39.4814ZM81.4611 39.8937V35.2059H81.9199L83.7219 38.5904L85.5106 35.2059H85.9694V39.8937H85.464V36.2299L83.9014 39.1689H83.5424L81.9598 36.2365V39.8937H81.4611ZM88.0803 39.9535C87.8587 39.9535 87.6592 39.9114 87.4819 39.8272C87.309 39.7385 87.1716 39.6188 87.0696 39.4681C86.9677 39.3174 86.9167 39.1489 86.9167 38.9628C86.9167 38.7278 86.9765 38.5416 87.0962 38.4042C87.2203 38.2668 87.422 38.1693 87.7013 38.1117C87.985 38.0496 88.3707 38.0186 88.8583 38.0186H89.0711V37.8124C89.0711 37.5376 89.0135 37.3403 88.8982 37.2206C88.7874 37.0965 88.6078 37.0345 88.3596 37.0345C88.1646 37.0345 87.9762 37.0633 87.7944 37.1209C87.6127 37.1741 87.4265 37.2628 87.2359 37.3869L87.0497 36.9946C87.2181 36.8749 87.422 36.7796 87.6614 36.7086C87.9052 36.6377 88.138 36.6022 88.3596 36.6022C88.7763 36.6022 89.0844 36.7042 89.2839 36.9081C89.4878 37.112 89.5897 37.429 89.5897 37.859V39.8937H89.0844V39.3351C89.0002 39.5257 88.8694 39.6765 88.6921 39.7873C88.5192 39.8981 88.3153 39.9535 88.0803 39.9535ZM88.1668 39.5479C88.4327 39.5479 88.65 39.457 88.8184 39.2753C88.9869 39.0891 89.0711 38.8542 89.0711 38.5705V38.371H88.865C88.5059 38.371 88.2222 38.3887 88.0138 38.4242C87.8099 38.4552 87.6659 38.5128 87.5816 38.5971C87.5018 38.6768 87.4619 38.7877 87.4619 38.9295C87.4619 39.1113 87.524 39.2598 87.6481 39.375C87.7767 39.4903 87.9496 39.5479 88.1668 39.5479ZM90.589 39.8937V36.6621H91.1143V37.2406C91.2871 36.8505 91.6418 36.6355 92.1781 36.5956L92.371 36.5757L92.4109 37.0411L92.0718 37.081C91.7659 37.1076 91.5332 37.2051 91.3736 37.3736C91.214 37.5376 91.1342 37.7637 91.1342 38.0518V39.8937H90.589ZM94.3029 39.9535C93.9793 39.9535 93.7 39.8848 93.4651 39.7474C93.2301 39.6055 93.0484 39.4083 92.9198 39.1556C92.7957 38.8985 92.7336 38.5993 92.7336 38.2579C92.7336 37.7437 92.8733 37.3403 93.1525 37.0478C93.4318 36.7508 93.8153 36.6022 94.3029 36.6022C94.5024 36.6022 94.6996 36.6377 94.8947 36.7086C95.0897 36.7796 95.2515 36.8793 95.3801 37.0079L95.1939 37.4002C95.0653 37.276 94.9235 37.1852 94.7683 37.1275C94.6176 37.0699 94.4735 37.0411 94.3361 37.0411C93.9992 37.0411 93.7399 37.1475 93.5581 37.3603C93.3764 37.5686 93.2855 37.8701 93.2855 38.2646C93.2855 38.6502 93.3764 38.9561 93.5581 39.1822C93.7399 39.4038 93.9992 39.5147 94.3361 39.5147C94.4735 39.5147 94.6176 39.4858 94.7683 39.4282C94.9235 39.3706 95.0653 39.2775 95.1939 39.1489L95.3801 39.5413C95.2515 39.6698 95.0875 39.7718 94.888 39.8471C94.693 39.9181 94.4979 39.9535 94.3029 39.9535ZM96.011 39.8937V35.2059H96.5496V37.194C96.656 36.999 96.8045 36.8527 96.9951 36.7552C97.1902 36.6532 97.4074 36.6022 97.6468 36.6022C98.4137 36.6022 98.7971 37.0278 98.7971 37.8789V39.8937H98.2585V37.9122C98.2585 37.6107 98.1987 37.3913 98.079 37.2539C97.9637 37.112 97.7775 37.0411 97.5204 37.0411C97.2234 37.0411 96.9863 37.1342 96.809 37.3204C96.6361 37.5021 96.5496 37.7459 96.5496 38.0518V39.8937H96.011ZM101.591 39.8937V39.4814L103.194 37.7526C103.42 37.5043 103.582 37.2783 103.679 37.0744C103.781 36.8704 103.832 36.6621 103.832 36.4493C103.832 35.9041 103.515 35.6314 102.881 35.6314C102.407 35.6314 101.988 35.8088 101.624 36.1634L101.418 35.7378C101.591 35.5605 101.811 35.4187 102.077 35.3123C102.347 35.2015 102.631 35.146 102.928 35.146C103.398 35.146 103.757 35.2569 104.005 35.4785C104.258 35.6957 104.384 36.006 104.384 36.4094C104.384 36.6887 104.315 36.9635 104.178 37.2339C104.04 37.4999 103.83 37.7836 103.546 38.0851L102.289 39.4282H104.577V39.8937H101.591ZM106.975 39.9535C106.438 39.9535 106.03 39.7474 105.751 39.3351C105.472 38.9229 105.332 38.3266 105.332 37.5465C105.332 36.7618 105.472 36.1656 105.751 35.7578C106.03 35.35 106.438 35.146 106.975 35.146C107.515 35.146 107.923 35.35 108.198 35.7578C108.477 36.1612 108.617 36.7552 108.617 37.5398C108.617 38.3244 108.475 38.9229 108.191 39.3351C107.912 39.7474 107.506 39.9535 106.975 39.9535ZM106.975 39.4814C107.347 39.4814 107.622 39.324 107.799 39.0093C107.981 38.6946 108.072 38.2047 108.072 37.5398C108.072 36.8749 107.983 36.3895 107.806 36.0836C107.628 35.7733 107.351 35.6181 106.975 35.6181C106.602 35.6181 106.325 35.7733 106.143 36.0836C105.966 36.3939 105.877 36.8793 105.877 37.5398C105.877 38.2047 105.966 38.6946 106.143 39.0093C106.325 39.324 106.602 39.4814 106.975 39.4814ZM109.565 39.8937V39.4814L111.168 37.7526C111.394 37.5043 111.556 37.2783 111.653 37.0744C111.755 36.8704 111.806 36.6621 111.806 36.4493C111.806 35.9041 111.489 35.6314 110.855 35.6314C110.381 35.6314 109.962 35.8088 109.598 36.1634L109.392 35.7378C109.565 35.5605 109.785 35.4187 110.051 35.3123C110.321 35.2015 110.605 35.146 110.902 35.146C111.372 35.146 111.731 35.2569 111.979 35.4785C112.232 35.6957 112.358 36.006 112.358 36.4094C112.358 36.6887 112.289 36.9635 112.152 37.2339C112.014 37.4999 111.804 37.7836 111.52 38.0851L110.263 39.4282H112.551V39.8937H109.565ZM115.461 39.8937V38.8896H113.299V38.4774L115.554 35.2059H116.012V38.4242H116.711V38.8896H116.012V39.8937H115.461ZM115.461 38.4242V36.1035L113.865 38.4242H115.461Z" fill="#B1BAC3" />
        <path d="M124.669 39.9655C124.212 39.9655 123.869 39.8458 123.64 39.6064C123.411 39.3617 123.297 39.0106 123.297 38.5532V36.5185H122.539V36.0158H123.297V34.8269H123.943V36.0158H125.172V36.5185H123.943V38.4893C123.943 38.7925 124.007 39.0239 124.135 39.1835C124.263 39.3378 124.47 39.4149 124.757 39.4149C124.842 39.4149 124.927 39.4043 125.013 39.383C125.098 39.3617 125.175 39.3405 125.244 39.3192L125.356 39.8139C125.287 39.8511 125.185 39.8857 125.052 39.9176C124.919 39.9495 124.792 39.9655 124.669 39.9655ZM127.476 39.9655C127.098 39.9655 126.771 39.883 126.495 39.7181C126.218 39.5532 126.002 39.3218 125.848 39.0239C125.699 38.7207 125.625 38.3643 125.625 37.9547C125.625 37.5451 125.699 37.1914 125.848 36.8935C126.002 36.5903 126.218 36.3562 126.495 36.1913C126.771 36.0264 127.098 35.944 127.476 35.944C127.848 35.944 128.173 36.0264 128.449 36.1913C128.731 36.3562 128.947 36.5903 129.096 36.8935C129.25 37.1914 129.327 37.5451 129.327 37.9547C129.327 38.3643 129.25 38.7207 129.096 39.0239C128.947 39.3218 128.731 39.5532 128.449 39.7181C128.173 39.883 127.848 39.9655 127.476 39.9655ZM127.476 39.4468C127.838 39.4468 128.128 39.3192 128.346 39.0638C128.564 38.8032 128.673 38.4335 128.673 37.9547C128.673 37.4707 128.564 37.1009 128.346 36.8456C128.128 36.5903 127.838 36.4626 127.476 36.4626C127.109 36.4626 126.816 36.5903 126.598 36.8456C126.385 37.1009 126.279 37.4707 126.279 37.9547C126.279 38.4335 126.385 38.8032 126.598 39.0638C126.816 39.3192 127.109 39.4468 127.476 39.4468Z" fill="#B1BAC3" />
        <path d="M136.425 39.8937V39.4814L138.027 37.7526C138.253 37.5043 138.415 37.2783 138.513 37.0744C138.615 36.8704 138.666 36.6621 138.666 36.4493C138.666 35.9041 138.349 35.6314 137.715 35.6314C137.241 35.6314 136.822 35.8088 136.458 36.1634L136.252 35.7378C136.425 35.5605 136.644 35.4187 136.91 35.3123C137.181 35.2015 137.464 35.146 137.761 35.146C138.231 35.146 138.59 35.2569 138.839 35.4785C139.091 35.6957 139.218 36.006 139.218 36.4094C139.218 36.6887 139.149 36.9635 139.011 37.2339C138.874 37.4999 138.663 37.7836 138.38 38.0851L137.123 39.4282H139.41V39.8937H136.425ZM141.808 39.9535C141.272 39.9535 140.864 39.7474 140.585 39.3351C140.305 38.9229 140.166 38.3266 140.166 37.5465C140.166 36.7618 140.305 36.1656 140.585 35.7578C140.864 35.35 141.272 35.146 141.808 35.146C142.349 35.146 142.757 35.35 143.032 35.7578C143.311 36.1612 143.451 36.7552 143.451 37.5398C143.451 38.3244 143.309 38.9229 143.025 39.3351C142.746 39.7474 142.34 39.9535 141.808 39.9535ZM141.808 39.4814C142.181 39.4814 142.455 39.324 142.633 39.0093C142.815 38.6946 142.905 38.2047 142.905 37.5398C142.905 36.8749 142.817 36.3895 142.639 36.0836C142.462 35.7733 142.185 35.6181 141.808 35.6181C141.436 35.6181 141.159 35.7733 140.977 36.0836C140.8 36.3939 140.711 36.8793 140.711 37.5398C140.711 38.2047 140.8 38.6946 140.977 39.0093C141.159 39.324 141.436 39.4814 141.808 39.4814ZM146.1 39.8937V35.2059H146.559L148.361 38.5904L150.149 35.2059H150.608V39.8937H150.103V36.2299L148.54 39.1689H148.181L146.599 36.2365V39.8937H146.1ZM152.719 39.9535C152.498 39.9535 152.298 39.9114 152.121 39.8272C151.948 39.7385 151.811 39.6188 151.709 39.4681C151.607 39.3174 151.556 39.1489 151.556 38.9628C151.556 38.7278 151.615 38.5416 151.735 38.4042C151.859 38.2668 152.061 38.1693 152.34 38.1117C152.624 38.0496 153.01 38.0186 153.497 38.0186H153.71V37.8124C153.71 37.5376 153.652 37.3403 153.537 37.2206C153.426 37.0965 153.247 37.0345 152.999 37.0345C152.803 37.0345 152.615 37.0633 152.433 37.1209C152.252 37.1741 152.065 37.2628 151.875 37.3869L151.689 36.9946C151.857 36.8749 152.061 36.7796 152.3 36.7086C152.544 36.6377 152.777 36.6022 152.999 36.6022C153.415 36.6022 153.723 36.7042 153.923 36.9081C154.127 37.112 154.229 37.429 154.229 37.859V39.8937H153.723V39.3351C153.639 39.5257 153.508 39.6765 153.331 39.7873C153.158 39.8981 152.954 39.9535 152.719 39.9535ZM152.806 39.5479C153.072 39.5479 153.289 39.457 153.457 39.2753C153.626 39.0891 153.71 38.8542 153.71 38.5705V38.371H153.504C153.145 38.371 152.861 38.3887 152.653 38.4242C152.449 38.4552 152.305 38.5128 152.221 38.5971C152.141 38.6768 152.101 38.7877 152.101 38.9295C152.101 39.1113 152.163 39.2598 152.287 39.375C152.416 39.4903 152.588 39.5479 152.806 39.5479ZM155.228 39.8937V36.6621H155.753V37.2406C155.926 36.8505 156.281 36.6355 156.817 36.5956L157.01 36.5757L157.05 37.0411L156.711 37.081C156.405 37.1076 156.172 37.2051 156.012 37.3736C155.853 37.5376 155.773 37.7637 155.773 38.0518V39.8937H155.228ZM158.942 39.9535C158.618 39.9535 158.339 39.8848 158.104 39.7474C157.869 39.6055 157.687 39.4083 157.559 39.1556C157.435 38.8985 157.373 38.5993 157.373 38.2579C157.373 37.7437 157.512 37.3403 157.791 37.0478C158.071 36.7508 158.454 36.6022 158.942 36.6022C159.141 36.6022 159.339 36.6377 159.534 36.7086C159.729 36.7796 159.89 36.8793 160.019 37.0079L159.833 37.4002C159.704 37.276 159.562 37.1852 159.407 37.1275C159.257 37.0699 159.112 37.0411 158.975 37.0411C158.638 37.0411 158.379 37.1475 158.197 37.3603C158.015 37.5686 157.924 37.8701 157.924 38.2646C157.924 38.6502 158.015 38.9561 158.197 39.1822C158.379 39.4038 158.638 39.5147 158.975 39.5147C159.112 39.5147 159.257 39.4858 159.407 39.4282C159.562 39.3706 159.704 39.2775 159.833 39.1489L160.019 39.5413C159.89 39.6698 159.726 39.7718 159.527 39.8471C159.332 39.9181 159.137 39.9535 158.942 39.9535ZM160.65 39.8937V35.2059H161.189V37.194C161.295 36.999 161.443 36.8527 161.634 36.7552C161.829 36.6532 162.046 36.6022 162.286 36.6022C163.053 36.6022 163.436 37.0278 163.436 37.8789V39.8937H162.897V37.9122C162.897 37.6107 162.838 37.3913 162.718 37.2539C162.603 37.112 162.416 37.0411 162.159 37.0411C161.862 37.0411 161.625 37.1342 161.448 37.3204C161.275 37.5021 161.189 37.7459 161.189 38.0518V39.8937H160.65ZM166.23 39.8937V39.4814L167.833 37.7526C168.059 37.5043 168.22 37.2783 168.318 37.0744C168.42 36.8704 168.471 36.6621 168.471 36.4493C168.471 35.9041 168.154 35.6314 167.52 35.6314C167.046 35.6314 166.627 35.8088 166.263 36.1634L166.057 35.7378C166.23 35.5605 166.449 35.4187 166.715 35.3123C166.986 35.2015 167.27 35.146 167.567 35.146C168.036 35.146 168.396 35.2569 168.644 35.4785C168.896 35.6957 169.023 36.006 169.023 36.4094C169.023 36.6887 168.954 36.9635 168.817 37.2339C168.679 37.4999 168.469 37.7836 168.185 38.0851L166.928 39.4282H169.216V39.8937H166.23ZM171.613 39.9535C171.077 39.9535 170.669 39.7474 170.39 39.3351C170.111 38.9229 169.971 38.3266 169.971 37.5465C169.971 36.7618 170.111 36.1656 170.39 35.7578C170.669 35.35 171.077 35.146 171.613 35.146C172.154 35.146 172.562 35.35 172.837 35.7578C173.116 36.1612 173.256 36.7552 173.256 37.5398C173.256 38.3244 173.114 38.9229 172.83 39.3351C172.551 39.7474 172.145 39.9535 171.613 39.9535ZM171.613 39.4814C171.986 39.4814 172.261 39.324 172.438 39.0093C172.62 38.6946 172.711 38.2047 172.711 37.5398C172.711 36.8749 172.622 36.3895 172.445 36.0836C172.267 35.7733 171.99 35.6181 171.613 35.6181C171.241 35.6181 170.964 35.7733 170.782 36.0836C170.605 36.3939 170.516 36.8793 170.516 37.5398C170.516 38.2047 170.605 38.6946 170.782 39.0093C170.964 39.324 171.241 39.4814 171.613 39.4814ZM174.204 39.8937V39.4814L175.807 37.7526C176.033 37.5043 176.194 37.2783 176.292 37.0744C176.394 36.8704 176.445 36.6621 176.445 36.4493C176.445 35.9041 176.128 35.6314 175.494 35.6314C175.02 35.6314 174.601 35.8088 174.237 36.1634L174.031 35.7378C174.204 35.5605 174.424 35.4187 174.689 35.3123C174.96 35.2015 175.244 35.146 175.541 35.146C176.01 35.146 176.37 35.2569 176.618 35.4785C176.87 35.6957 176.997 36.006 176.997 36.4094C176.997 36.6887 176.928 36.9635 176.791 37.2339C176.653 37.4999 176.443 37.7836 176.159 38.0851L174.902 39.4282H177.19V39.8937H174.204ZM180.099 39.8937V38.8896H177.938V38.4774L180.193 35.2059H180.651V38.4242H181.35V38.8896H180.651V39.8937H180.099ZM180.099 38.4242V36.1035L178.504 38.4242H180.099Z" fill="#B1BAC3" />
        <rect x="28.6328" y="18.2236" width="26.5974" height="26.5974" rx="6.64935" fill="#C8EAD2" />
        <mask id="mask0_1_706" style="mask-type:alpha" maskUnits="userSpaceOnUse" x="33" y="23" width="17" height="17">
            <rect x="33.9524" y="23.5431" width="15.9584" height="15.9584" fill="#D9D9D9" />
        </mask>
        <g mask="url(#mask0_1_706)">
            <path d="M41.2667 36.4595V31.9047L37.2771 29.594V34.1488L41.2667 36.4595ZM42.5966 36.4595L46.5862 34.1488V29.594L42.5966 31.9047V36.4595ZM41.2667 37.9888L36.6122 35.3124C36.4016 35.1905 36.2382 35.0299 36.1218 34.8304C36.0054 34.6309 35.9473 34.4092 35.9473 34.1654V28.8792C35.9473 28.6354 36.0054 28.4137 36.1218 28.2143C36.2382 28.0148 36.4016 27.8541 36.6122 27.7322L41.2667 25.0558C41.4773 24.9339 41.699 24.873 41.9317 24.873C42.1644 24.873 42.3861 24.9339 42.5966 25.0558L47.2512 27.7322C47.4617 27.8541 47.6252 28.0148 47.7416 28.2143C47.8579 28.4137 47.9161 28.6354 47.9161 28.8792V34.1654C47.9161 34.4092 47.8579 34.6309 47.7416 34.8304C47.6252 35.0299 47.4617 35.1905 47.2512 35.3124L42.5966 37.9888C42.3861 38.1107 42.1644 38.1717 41.9317 38.1717C41.699 38.1717 41.4773 38.1107 41.2667 37.9888ZM44.5914 29.2117L45.8714 28.4802L41.9317 26.2028L40.6351 26.9509L44.5914 29.2117ZM41.9317 30.7576L43.2283 30.0096L39.2886 27.7322L37.9919 28.4802L41.9317 30.7576Z" fill="#434343" />
        </g>
        <g clipPath="url(#clip0_1_706)">
            <mask id="mask1_1_706" style="mask-type:luminance" maskUnits="userSpaceOnUse" x="33" y="56" width="15" height="16">
                <path d="M40.6032 70.7534C41.4766 70.7546 42.3416 70.5831 43.1485 70.2489C43.9553 69.9146 44.6882 69.4242 45.305 68.8058C45.9233 68.1891 46.4137 67.4562 46.748 66.6493C47.0822 65.8424 47.2537 64.9775 47.2526 64.1041C47.2537 63.2307 47.0822 62.3657 46.748 61.5589C46.4137 60.752 45.9233 60.0191 45.305 59.4023C44.6882 58.7839 43.9553 58.2935 43.1485 57.9593C42.3416 57.6251 41.4766 57.4536 40.6032 57.4547C39.7298 57.4536 38.8649 57.6251 38.058 57.9593C37.2511 58.2936 36.5182 58.784 35.9015 59.4023C35.2831 60.0191 34.7927 60.752 34.4585 61.5589C34.1242 62.3657 33.9527 63.2307 33.9539 64.1041C33.9527 64.9775 34.1242 65.8424 34.4584 66.6493C34.7927 67.4562 35.2831 68.1891 35.9015 68.8058C36.5182 69.4242 37.2511 69.9146 38.058 70.2488C38.8649 70.5831 39.7298 70.7545 40.6032 70.7534Z" fill="white" stroke="white" strokeWidth="1.32987" strokeLinejoin="round" />
                <path d="M37.946 64.104L39.9409 66.0988L43.9305 62.1091" stroke="black" strokeWidth="1.32987" strokeLinecap="round" strokeLinejoin="round" />
            </mask>
            <g mask="url(#mask1_1_706)">
                <path d="M32.6257 56.1246H48.5842V72.0831H32.6257V56.1246Z" fill="#434343" />
            </g>
        </g>
        <path d="M48.5842 64.104H101.779" stroke="#434343" strokeWidth="1.32987" strokeLinecap="round" />
        <g clipPath="url(#clip1_1_706)">
            <mask id="mask2_1_706" style="mask-type:luminance" maskUnits="userSpaceOnUse" x="102" y="56" width="16" height="16">
                <path d="M109.757 70.7534C110.63 70.7546 111.495 70.5831 112.302 70.2489C113.109 69.9146 113.842 69.4242 114.458 68.8058C115.077 68.1891 115.567 67.4562 115.901 66.6493C116.236 65.8424 116.407 64.9775 116.406 64.1041C116.407 63.2307 116.236 62.3657 115.901 61.5589C115.567 60.752 115.077 60.0191 114.458 59.4023C113.842 58.7839 113.109 58.2935 112.302 57.9593C111.495 57.6251 110.63 57.4536 109.757 57.4547C108.883 57.4536 108.018 57.6251 107.211 57.9593C106.404 58.2936 105.672 58.784 105.055 59.4023C104.436 60.0191 103.946 60.752 103.612 61.5589C103.278 62.3657 103.106 63.2307 103.107 64.1041C103.106 64.9775 103.278 65.8424 103.612 66.6493C103.946 67.4562 104.436 68.1891 105.055 68.8058C105.672 69.4242 106.404 69.9146 107.211 70.2488C108.018 70.5831 108.883 70.7545 109.757 70.7534Z" fill="white" stroke="white" strokeWidth="1.32987" strokeLinejoin="round" />
                <path d="M107.099 64.104L109.094 66.0988L113.084 62.1091" stroke="black" strokeWidth="1.32987" strokeLinecap="round" strokeLinejoin="round" />
            </mask>
            <g mask="url(#mask2_1_706)">
                <path d="M101.779 56.1246H117.737V72.0831H101.779V56.1246Z" fill="#434343" />
            </g>
        </g>
        <path d="M117.738 64.104H170.932" stroke="#434343" strokeWidth="1.32987" strokeLinecap="round" />
        <g clipPath="url(#clip2_1_706)">
            <mask id="mask3_1_706" style="mask-type:luminance" maskUnits="userSpaceOnUse" x="171" y="56" width="16" height="16">
                <path d="M178.91 70.7534C179.783 70.7545 180.648 70.583 181.455 70.2488C182.262 69.9145 182.995 69.4241 183.612 68.8058C184.23 68.189 184.72 67.4561 185.055 66.6492C185.389 65.8424 185.56 64.9774 185.559 64.104C185.56 63.2306 185.389 62.3657 185.055 61.5588C184.72 60.7519 184.23 60.019 183.612 59.4023C182.995 58.7839 182.262 58.2935 181.455 57.9592C180.648 57.625 179.783 57.4535 178.91 57.4547C178.036 57.4535 177.172 57.625 176.365 57.9593C175.558 58.2935 174.825 58.7839 174.208 59.4023C173.59 60.019 173.099 60.7519 172.765 61.5588C172.431 62.3657 172.259 63.2306 172.261 64.104C172.259 64.9774 172.431 65.8424 172.765 66.6492C173.099 67.4561 173.59 68.189 174.208 68.8058C174.825 69.4241 175.558 69.9145 176.365 70.2488C177.172 70.583 178.036 70.7545 178.91 70.7534Z" fill="white" stroke="white" strokeWidth="1.32987" strokeLinejoin="round" />
                <path d="M176.253 64.1039L178.247 66.0987L182.237 62.1091" stroke="black" strokeWidth="1.32987" strokeLinecap="round" strokeLinejoin="round" />
            </mask>
            <g mask="url(#mask3_1_706)">
                <path d="M170.932 56.1246H186.891V72.083H170.932V56.1246Z" fill="#434343" />
            </g>
        </g>
        <path d="M186.891 64.1039H240.086" stroke="#434343" strokeWidth="1.32987" strokeLinecap="round" stroke-dasharray="5.32 5.32" />
        <path d="M248.063 70.7534C246.748 70.7534 245.463 70.3635 244.369 69.6328C243.276 68.9022 242.423 67.8637 241.92 66.6487C241.417 65.4337 241.285 64.0967 241.542 62.8069C241.798 61.517 242.432 60.3322 243.361 59.4023C244.291 58.4724 245.476 57.8391 246.766 57.5825C248.056 57.3259 249.393 57.4576 250.608 57.9609C251.823 58.4642 252.861 59.3164 253.592 60.4099C254.323 61.5034 254.713 62.789 254.713 64.1041C254.713 65.8676 254.012 67.5589 252.765 68.8059C251.518 70.0529 249.827 70.7534 248.063 70.7534ZM248.063 58.7846C247.011 58.7846 245.983 59.0966 245.108 59.6811C244.233 60.2656 243.551 61.0964 243.149 62.0684C242.746 63.0404 242.641 64.11 242.846 65.1419C243.051 66.1737 243.558 67.1216 244.302 67.8655C245.046 68.6095 245.994 69.1161 247.026 69.3213C248.057 69.5266 249.127 69.4213 250.099 69.0186C251.071 68.616 251.902 67.9342 252.486 67.0594C253.071 66.1846 253.383 65.1562 253.383 64.1041C253.383 62.6933 252.822 61.3402 251.825 60.3426C250.827 59.345 249.474 58.7846 248.063 58.7846Z" fill="#B1BAC3" />
        <path d="M29.327 86.7325V81.1072H32.8059V81.6578H29.9813V83.6206H32.6464V84.1712H29.9813V86.7325H29.327ZM33.5327 86.7325V82.8546H34.1631V83.5488C34.3706 83.0807 34.7961 82.8227 35.4398 82.7749L35.6712 82.7509L35.719 83.3095L35.3121 83.3573C34.9451 83.3893 34.6658 83.5063 34.4743 83.7084C34.2828 83.9052 34.187 84.1765 34.187 84.5223V86.7325H33.5327ZM37.9575 86.8044C37.5798 86.8044 37.2527 86.7219 36.9761 86.557C36.6995 86.3921 36.484 86.1607 36.3298 85.8628C36.1808 85.5596 36.1063 85.2032 36.1063 84.7936C36.1063 84.384 36.1808 84.0302 36.3298 83.7324C36.484 83.4291 36.6995 83.1951 36.9761 83.0302C37.2527 82.8653 37.5798 82.7828 37.9575 82.7828C38.3299 82.7828 38.6544 82.8653 38.931 83.0302C39.2129 83.1951 39.4284 83.4291 39.5773 83.7324C39.7316 84.0302 39.8087 84.384 39.8087 84.7936C39.8087 85.2032 39.7316 85.5596 39.5773 85.8628C39.4284 86.1607 39.2129 86.3921 38.931 86.557C38.6544 86.7219 38.3299 86.8044 37.9575 86.8044ZM37.9575 86.2857C38.3193 86.2857 38.6092 86.158 38.8273 85.9027C39.0454 85.6421 39.1544 85.2723 39.1544 84.7936C39.1544 84.3095 39.0454 83.9398 38.8273 83.6845C38.6092 83.4291 38.3193 83.3015 37.9575 83.3015C37.5905 83.3015 37.2979 83.4291 37.0798 83.6845C36.867 83.9398 36.7606 84.3095 36.7606 84.7936C36.7606 85.2723 36.867 85.6421 37.0798 85.9027C37.2979 86.158 37.5905 86.2857 37.9575 86.2857ZM40.7955 86.7325V82.8546H41.4258V83.5089C41.5428 83.2749 41.7051 83.0967 41.9125 82.9743C42.12 82.8467 42.362 82.7828 42.6386 82.7828C43.2451 82.7828 43.6334 83.0461 43.8036 83.5728C43.9206 83.3281 44.0935 83.1366 44.3223 82.9983C44.551 82.8546 44.8143 82.7828 45.1122 82.7828C45.974 82.7828 46.4048 83.2935 46.4048 84.3148V86.7325H45.7585V84.3468C45.7585 83.9904 45.6947 83.7297 45.567 83.5648C45.4447 83.3946 45.2399 83.3095 44.9526 83.3095C44.6388 83.3095 44.3888 83.4212 44.2026 83.6446C44.0164 83.868 43.9233 84.1659 43.9233 84.5383V86.7325H43.277V84.3468C43.277 83.9904 43.2132 83.7297 43.0855 83.5648C42.9631 83.3946 42.7583 83.3095 42.4711 83.3095C42.1519 83.3095 41.8992 83.4212 41.7131 83.6446C41.5322 83.868 41.4418 84.1659 41.4418 84.5383V86.7325H40.7955Z" fill="#04203D" />
        <path d="M29.2871 97.7325V92.1072H32.9256V92.7774H30.085V94.5409H32.7581V95.2111H30.085V97.0623H32.9256V97.7325H29.2871ZM35.5188 97.8044C35.0294 97.8044 34.665 97.6793 34.4256 97.4293C34.1862 97.1793 34.0665 96.8176 34.0665 96.3442V94.4611H33.3085V93.8387H34.0665V92.6657H34.8724V93.8387H36.0773V94.4611H34.8724V96.2803C34.8724 96.5623 34.931 96.775 35.048 96.9187C35.1703 97.0623 35.3671 97.1341 35.6384 97.1341C35.7236 97.1341 35.806 97.1261 35.8858 97.1102C35.9656 97.0889 36.0454 97.0649 36.1252 97.0384L36.2528 97.6448C36.1731 97.6926 36.0613 97.7299 35.9177 97.7565C35.7794 97.7884 35.6464 97.8044 35.5188 97.8044ZM38.2772 97.8044C37.7878 97.8044 37.4234 97.6793 37.184 97.4293C36.9447 97.1793 36.825 96.8176 36.825 96.3442V94.4611H36.067V93.8387H36.825V92.6657H37.6309V93.8387H38.8357V94.4611H37.6309V96.2803C37.6309 96.5623 37.6894 96.775 37.8064 96.9187C37.9288 97.0623 38.1256 97.1341 38.3969 97.1341C38.482 97.1341 38.5644 97.1261 38.6442 97.1102C38.724 97.0889 38.8038 97.0649 38.8836 97.0384L39.0113 97.6448C38.9315 97.6926 38.8198 97.7299 38.6762 97.7565C38.5379 97.7884 38.4049 97.8044 38.2772 97.8044ZM40.7766 97.8044C40.5053 97.8044 40.2632 97.7512 40.0505 97.6448C39.8377 97.5384 39.6674 97.3948 39.5398 97.2139C39.4174 97.033 39.3563 96.8282 39.3563 96.5995C39.3563 96.3122 39.4281 96.0862 39.5717 95.9213C39.7206 95.7564 39.9627 95.6367 40.2978 95.5622C40.6383 95.4877 41.0957 95.4505 41.6702 95.4505H41.9415V95.243C41.9415 94.9398 41.8777 94.7217 41.75 94.5887C41.6224 94.4557 41.4122 94.3893 41.1197 94.3893C40.8962 94.3893 40.6728 94.4238 40.4494 94.493C40.226 94.5568 39.9973 94.6605 39.7632 94.8042L39.5158 94.2376C39.718 94.094 39.9707 93.9797 40.2739 93.8945C40.5771 93.8094 40.867 93.7669 41.1436 93.7669C41.6756 93.7669 42.0692 93.8945 42.3245 94.1499C42.5799 94.3999 42.7075 94.7935 42.7075 95.3308V97.7325H41.9495V97.0862C41.8538 97.3096 41.7048 97.4852 41.5027 97.6129C41.3005 97.7405 41.0585 97.8044 40.7766 97.8044ZM40.9361 97.2299C41.2234 97.2299 41.4628 97.1288 41.6543 96.9266C41.8458 96.7245 41.9415 96.4692 41.9415 96.1606V95.9452H41.6782C41.2899 95.9452 40.984 95.9638 40.7606 96.0011C40.5425 96.0383 40.3856 96.1021 40.2898 96.1926C40.1994 96.2777 40.1542 96.3974 40.1542 96.5516C40.1542 96.7538 40.2233 96.9187 40.3616 97.0463C40.4999 97.1687 40.6914 97.2299 40.9361 97.2299ZM45.4349 97.7325L47.9403 92.1072H48.6266L51.14 97.7325H50.2942L49.7037 96.3601H46.8552L46.2727 97.7325H45.4349ZM48.2755 93.0248L47.1504 95.6899H49.4245L48.2914 93.0248H48.2755ZM53.5134 99.2406C53.1623 99.2406 52.8352 99.1981 52.5319 99.1129C52.2287 99.0332 51.9601 98.9055 51.726 98.7299L51.9734 98.1554C52.2075 98.315 52.4468 98.4321 52.6915 98.5065C52.9362 98.581 53.1916 98.6182 53.4575 98.6182C54.2023 98.6182 54.5746 98.2459 54.5746 97.5011V96.8867C54.4629 97.1208 54.2874 97.3043 54.048 97.4373C53.8139 97.5703 53.5506 97.6368 53.2581 97.6368C52.907 97.6368 52.6011 97.557 52.3404 97.3974C52.0798 97.2325 51.8777 97.0064 51.734 96.7192C51.5904 96.4266 51.5186 96.0862 51.5186 95.6978C51.5186 95.3148 51.5904 94.9797 51.734 94.6925C51.8777 94.3999 52.0798 94.1738 52.3404 94.0142C52.6011 93.8493 52.907 93.7669 53.2581 93.7669C53.5559 93.7669 53.8219 93.8334 54.056 93.9664C54.29 94.0993 54.4629 94.2829 54.5746 94.5169V93.8387H55.3566V97.4054C55.3566 98.0171 55.1997 98.4746 54.8858 98.7778C54.572 99.0864 54.1145 99.2406 53.5134 99.2406ZM53.4496 97.0064C53.79 97.0064 54.0613 96.8894 54.2634 96.6553C54.4656 96.4213 54.5666 96.1021 54.5666 95.6978C54.5666 95.2936 54.4656 94.9771 54.2634 94.7483C54.0613 94.5143 53.79 94.3972 53.4496 94.3972C53.1091 94.3972 52.8378 94.5143 52.6357 94.7483C52.4335 94.9771 52.3325 95.2936 52.3325 95.6978C52.3325 96.1021 52.4335 96.4213 52.6357 96.6553C52.8378 96.8894 53.1091 97.0064 53.4496 97.0064ZM58.5782 97.8044C58.2803 97.8044 58.017 97.7379 57.7883 97.6049C57.5595 97.4719 57.3893 97.2937 57.2776 97.0703V97.7325H56.4876V92.1072H57.2935V94.469C57.4106 94.2563 57.5808 94.086 57.8042 93.9584C58.033 93.8307 58.2909 93.7669 58.5782 93.7669C58.924 93.7669 59.2245 93.8493 59.4799 94.0142C59.7405 94.1791 59.94 94.4132 60.0783 94.7164C60.2219 95.0143 60.2937 95.3707 60.2937 95.7856C60.2937 96.2005 60.2219 96.5596 60.0783 96.8628C59.94 97.166 59.7405 97.4001 59.4799 97.565C59.2245 97.7246 58.924 97.8044 58.5782 97.8044ZM58.3787 97.182C58.7138 97.182 58.9798 97.0623 59.1766 96.8229C59.3788 96.5835 59.4799 96.2378 59.4799 95.7856C59.4799 95.3335 59.3788 94.9904 59.1766 94.7563C58.9798 94.5169 58.7138 94.3972 58.3787 94.3972C58.0436 94.3972 57.775 94.5169 57.5728 94.7563C57.376 94.9904 57.2776 95.3335 57.2776 95.7856C57.2776 96.2378 57.376 96.5835 57.5728 96.8229C57.775 97.0623 58.0436 97.182 58.3787 97.182ZM62.8935 97.8044C62.4999 97.8044 62.1594 97.7219 61.8722 97.557C61.5849 97.3921 61.3615 97.1607 61.2019 96.8628C61.0477 96.5596 60.9705 96.2005 60.9705 95.7856C60.9705 95.3707 61.0477 95.0143 61.2019 94.7164C61.3615 94.4132 61.5849 94.1791 61.8722 94.0142C62.1594 93.8493 62.4999 93.7669 62.8935 93.7669C63.2765 93.7669 63.6117 93.8493 63.8989 94.0142C64.1862 94.1791 64.4096 94.4132 64.5692 94.7164C64.7287 95.0143 64.8085 95.3707 64.8085 95.7856C64.8085 96.2005 64.7287 96.5596 64.5692 96.8628C64.4096 97.1607 64.1862 97.3921 63.8989 97.557C63.6117 97.7219 63.2765 97.8044 62.8935 97.8044ZM62.8935 97.182C63.2233 97.182 63.4893 97.0623 63.6914 96.8229C63.8936 96.5835 63.9947 96.2378 63.9947 95.7856C63.9947 95.3335 63.8936 94.9904 63.6914 94.7563C63.4893 94.5169 63.2233 94.3972 62.8935 94.3972C62.5584 94.3972 62.2898 94.5169 62.0876 94.7563C61.8855 94.9904 61.7844 95.3335 61.7844 95.7856C61.7844 96.2378 61.8855 96.5835 62.0876 96.8229C62.2898 97.0623 62.5584 97.182 62.8935 97.182ZM65.7136 97.7325V93.8387H66.4956V94.5329C66.6977 94.0701 67.118 93.8121 67.7563 93.7589L68.0196 93.7429L68.0755 94.4291L67.5887 94.477C66.8812 94.5462 66.5275 94.9106 66.5275 95.5702V97.7325H65.7136ZM73.3956 97.8044C72.8264 97.8044 72.3396 97.6873 71.9354 97.4533C71.5311 97.2192 71.2199 96.8867 71.0018 96.4559C70.789 96.0197 70.6826 95.5063 70.6826 94.9159C70.6826 94.3254 70.789 93.8147 71.0018 93.3839C71.2199 92.953 71.5311 92.6205 71.9354 92.3865C72.3396 92.1524 72.8264 92.0354 73.3956 92.0354C73.7786 92.0354 74.135 92.0966 74.4648 92.2189C74.7999 92.3359 75.0792 92.5062 75.3026 92.7296L75.0153 93.3918C74.7706 93.1737 74.518 93.0168 74.2573 92.9211C74.002 92.82 73.7227 92.7695 73.4195 92.7695C72.8131 92.7695 72.3503 92.9557 72.0311 93.328C71.7119 93.7004 71.5524 94.2297 71.5524 94.9159C71.5524 95.6021 71.7119 96.134 72.0311 96.5117C72.3503 96.8841 72.8131 97.0703 73.4195 97.0703C73.7227 97.0703 74.002 97.0224 74.2573 96.9266C74.518 96.8256 74.7706 96.666 75.0153 96.4479L75.3026 97.1102C75.0792 97.3283 74.7999 97.4985 74.4648 97.6208C74.135 97.7432 73.7786 97.8044 73.3956 97.8044ZM77.2908 97.8044C77.0196 97.8044 76.7775 97.7512 76.5647 97.6448C76.352 97.5384 76.1817 97.3948 76.0541 97.2139C75.9317 97.033 75.8705 96.8282 75.8705 96.5995C75.8705 96.3122 75.9424 96.0862 76.086 95.9213C76.2349 95.7564 76.477 95.6367 76.8121 95.5622C77.1525 95.4877 77.61 95.4505 78.1845 95.4505H78.4558V95.243C78.4558 94.9398 78.392 94.7217 78.2643 94.5887C78.1366 94.4557 77.9265 94.3893 77.634 94.3893C77.4105 94.3893 77.1871 94.4238 76.9637 94.493C76.7403 94.5568 76.5115 94.6605 76.2775 94.8042L76.0301 94.2376C76.2323 94.094 76.4849 93.9797 76.7882 93.8945C77.0914 93.8094 77.3813 93.7669 77.6579 93.7669C78.1898 93.7669 78.5835 93.8945 78.8388 94.1499C79.0941 94.3999 79.2218 94.7935 79.2218 95.3308V97.7325H78.4638V97.0862C78.368 97.3096 78.2191 97.4852 78.017 97.6129C77.8148 97.7405 77.5728 97.8044 77.2908 97.8044ZM77.4504 97.2299C77.7377 97.2299 77.9771 97.1288 78.1686 96.9266C78.3601 96.7245 78.4558 96.4692 78.4558 96.1606V95.9452H78.1925C77.8042 95.9452 77.4983 95.9638 77.2749 96.0011C77.0568 96.0383 76.8999 96.1021 76.8041 96.1926C76.7137 96.2777 76.6685 96.3974 76.6685 96.5516C76.6685 96.7538 76.7376 96.9187 76.8759 97.0463C77.0142 97.1687 77.2057 97.2299 77.4504 97.2299ZM81.6005 97.8044C81.1749 97.8044 80.8558 97.6847 80.643 97.4453C80.4355 97.2059 80.3318 96.8548 80.3318 96.392V92.1072H81.1377V96.3442C81.1377 96.8708 81.3531 97.1341 81.784 97.1341C81.8479 97.1341 81.9064 97.1314 81.9596 97.1261C82.0181 97.1208 82.0766 97.1102 82.1351 97.0942L82.1191 97.7405C81.9383 97.7831 81.7654 97.8044 81.6005 97.8044ZM84.0155 97.8044C83.7442 97.8044 83.5022 97.7512 83.2894 97.6448C83.0766 97.5384 82.9064 97.3948 82.7787 97.2139C82.6564 97.033 82.5952 96.8282 82.5952 96.5995C82.5952 96.3122 82.667 96.0862 82.8107 95.9213C82.9596 95.7564 83.2016 95.6367 83.5368 95.5622C83.8772 95.4877 84.3347 95.4505 84.9092 95.4505H85.1805V95.243C85.1805 94.9398 85.1167 94.7217 84.989 94.5887C84.8613 94.4557 84.6512 94.3893 84.3586 94.3893C84.1352 94.3893 83.9118 94.4238 83.6884 94.493C83.465 94.5568 83.2362 94.6605 83.0022 94.8042L82.7548 94.2376C82.9569 94.094 83.2096 93.9797 83.5128 93.8945C83.816 93.8094 84.1059 93.7669 84.3826 93.7669C84.9145 93.7669 85.3082 93.8945 85.5635 94.1499C85.8188 94.3999 85.9465 94.7935 85.9465 95.3308V97.7325H85.1885V97.0862C85.0927 97.3096 84.9438 97.4852 84.7416 97.6129C84.5395 97.7405 84.2975 97.8044 84.0155 97.8044ZM84.1751 97.2299C84.4624 97.2299 84.7017 97.1288 84.8932 96.9266C85.0847 96.7245 85.1805 96.4692 85.1805 96.1606V95.9452H84.9172C84.5288 95.9452 84.223 95.9638 83.9996 96.0011C83.7815 96.0383 83.6245 96.1021 83.5288 96.1926C83.4384 96.2777 83.3931 96.3974 83.3931 96.5516C83.3931 96.7538 83.4623 96.9187 83.6006 97.0463C83.7389 97.1687 83.9304 97.2299 84.1751 97.2299ZM89.147 97.8044C88.8491 97.8044 88.5858 97.7379 88.3571 97.6049C88.1283 97.4719 87.9581 97.2937 87.8464 97.0703V97.7325H87.0565V92.1072H87.8624V94.469C87.9794 94.2563 88.1496 94.086 88.373 93.9584C88.6018 93.8307 88.8598 93.7669 89.147 93.7669C89.4928 93.7669 89.7933 93.8493 90.0487 94.0142C90.3093 94.1791 90.5088 94.4132 90.6471 94.7164C90.7907 95.0143 90.8626 95.3707 90.8626 95.7856C90.8626 96.2005 90.7907 96.5596 90.6471 96.8628C90.5088 97.166 90.3093 97.4001 90.0487 97.565C89.7933 97.7246 89.4928 97.8044 89.147 97.8044ZM88.9475 97.182C89.2827 97.182 89.5486 97.0623 89.7455 96.8229C89.9476 96.5835 90.0487 96.2378 90.0487 95.7856C90.0487 95.3335 89.9476 94.9904 89.7455 94.7563C89.5486 94.5169 89.2827 94.3972 88.9475 94.3972C88.6124 94.3972 88.3438 94.5169 88.1416 94.7563C87.9448 94.9904 87.8464 95.3335 87.8464 95.7856C87.8464 96.2378 87.9448 96.5835 88.1416 96.8229C88.3438 97.0623 88.6124 97.182 88.9475 97.182ZM93.0155 97.8044C92.7442 97.8044 92.5022 97.7512 92.2894 97.6448C92.0766 97.5384 91.9064 97.3948 91.7787 97.2139C91.6564 97.033 91.5952 96.8282 91.5952 96.5995C91.5952 96.3122 91.667 96.0862 91.8107 95.9213C91.9596 95.7564 92.2016 95.6367 92.5368 95.5622C92.8772 95.4877 93.3347 95.4505 93.9092 95.4505H94.1805V95.243C94.1805 94.9398 94.1167 94.7217 93.989 94.5887C93.8613 94.4557 93.6512 94.3893 93.3586 94.3893C93.1352 94.3893 92.9118 94.4238 92.6884 94.493C92.465 94.5568 92.2362 94.6605 92.0022 94.8042L91.7548 94.2376C91.9569 94.094 92.2096 93.9797 92.5128 93.8945C92.816 93.8094 93.1059 93.7669 93.3826 93.7669C93.9145 93.7669 94.3082 93.8945 94.5635 94.1499C94.8188 94.3999 94.9465 94.7935 94.9465 95.3308V97.7325H94.1885V97.0862C94.0927 97.3096 93.9438 97.4852 93.7416 97.6129C93.5395 97.7405 93.2975 97.8044 93.0155 97.8044ZM93.1751 97.2299C93.4624 97.2299 93.7017 97.1288 93.8932 96.9266C94.0847 96.7245 94.1805 96.4692 94.1805 96.1606V95.9452H93.9172C93.5288 95.9452 93.223 95.9638 92.9996 96.0011C92.7815 96.0383 92.6245 96.1021 92.5288 96.1926C92.4384 96.2777 92.3931 96.3974 92.3931 96.5516C92.3931 96.7538 92.4623 96.9187 92.6006 97.0463C92.7389 97.1687 92.9304 97.2299 93.1751 97.2299ZM96.0565 97.7325V93.8387H96.8384V94.5329C97.0406 94.0701 97.4608 93.8121 98.0991 93.7589L98.3625 93.7429L98.4183 94.4291L97.9316 94.477C97.2241 94.5462 96.8703 94.9106 96.8703 95.5702V97.7325H96.0565Z" fill="#04203D" />
        <path d="M254.309 86.7325V81.6737H252.266V81.1072H257.014V81.6737H254.971V86.7325H254.309ZM258.645 86.8044C258.267 86.8044 257.94 86.7219 257.663 86.557C257.387 86.3921 257.171 86.1607 257.017 85.8628C256.868 85.5596 256.794 85.2032 256.794 84.7936C256.794 84.384 256.868 84.0302 257.017 83.7324C257.171 83.4291 257.387 83.1951 257.663 83.0302C257.94 82.8653 258.267 82.7828 258.645 82.7828C259.017 82.7828 259.342 82.8653 259.618 83.0302C259.9 83.1951 260.116 83.4291 260.265 83.7324C260.419 84.0302 260.496 84.384 260.496 84.7936C260.496 85.2032 260.419 85.5596 260.265 85.8628C260.116 86.1607 259.9 86.3921 259.618 86.557C259.342 86.7219 259.017 86.8044 258.645 86.8044ZM258.645 86.2857C259.007 86.2857 259.296 86.158 259.515 85.9027C259.733 85.6421 259.842 85.2723 259.842 84.7936C259.842 84.3095 259.733 83.9398 259.515 83.6845C259.296 83.4291 259.007 83.3015 258.645 83.3015C258.278 83.3015 257.985 83.4291 257.767 83.6845C257.554 83.9398 257.448 84.3095 257.448 84.7936C257.448 85.2723 257.554 85.6421 257.767 85.9027C257.985 86.158 258.278 86.2857 258.645 86.2857Z" fill="#04203D" />
        <path d="M184.994 97.7325V92.1072H185.544L187.707 96.1686L189.853 92.1072H190.404V97.7325H189.797V93.336L187.922 96.8628H187.491L185.592 93.344V97.7325H184.994ZM192.937 97.8044C192.671 97.8044 192.432 97.7538 192.219 97.6528C192.011 97.5464 191.846 97.4027 191.724 97.2219C191.602 97.041 191.541 96.8389 191.541 96.6155C191.541 96.3335 191.612 96.1101 191.756 95.9452C191.905 95.7803 192.147 95.6633 192.482 95.5941C192.823 95.5196 193.285 95.4824 193.871 95.4824H194.126V95.235C194.126 94.9052 194.057 94.6685 193.918 94.5249C193.785 94.376 193.57 94.3015 193.272 94.3015C193.038 94.3015 192.812 94.3361 192.594 94.4052C192.376 94.469 192.152 94.5754 191.924 94.7244L191.7 94.2536C191.902 94.11 192.147 93.9956 192.434 93.9105C192.727 93.8254 193.006 93.7828 193.272 93.7828C193.772 93.7828 194.142 93.9052 194.381 94.1499C194.626 94.3946 194.748 94.7749 194.748 95.2909V97.7325H194.142V97.0623C194.041 97.291 193.884 97.4719 193.671 97.6049C193.464 97.7379 193.219 97.8044 192.937 97.8044ZM193.041 97.3176C193.36 97.3176 193.62 97.2086 193.823 96.9905C194.025 96.7671 194.126 96.4851 194.126 96.1447V95.9053H193.878C193.448 95.9053 193.107 95.9266 192.857 95.9691C192.612 96.0064 192.44 96.0755 192.338 96.1766C192.243 96.2723 192.195 96.4053 192.195 96.5756C192.195 96.7937 192.269 96.9719 192.418 97.1102C192.573 97.2485 192.78 97.3176 193.041 97.3176ZM195.867 92.8892V92.163H196.665V92.8892H195.867ZM195.947 97.7325V93.8546H196.594V97.7325H195.947ZM197.802 97.7325V93.8546H198.432V94.5169C198.56 94.2722 198.741 94.0887 198.975 93.9664C199.209 93.844 199.472 93.7828 199.765 93.7828C200.685 93.7828 201.145 94.2935 201.145 95.3148V97.7325H200.499V95.3547C200.499 94.993 200.427 94.7297 200.283 94.5648C200.145 94.3946 199.922 94.3095 199.613 94.3095C199.257 94.3095 198.972 94.4212 198.759 94.6446C198.552 94.8627 198.448 95.1553 198.448 95.5223V97.7325H197.802ZM203.931 97.7325L206.413 92.1072H206.972L209.453 97.7325H208.775L208.152 96.2963H205.224L204.61 97.7325H203.931ZM206.684 92.8732L205.463 95.7457H207.921L206.7 92.8732H206.684ZM211.13 97.7325L209.462 93.8546H210.164L211.449 96.9985L212.75 93.8546H213.412L211.736 97.7325H211.13ZM215.788 97.8044C215.177 97.8044 214.692 97.6262 214.336 97.2697C213.98 96.908 213.801 96.4186 213.801 95.8016C213.801 95.4026 213.881 95.0515 214.041 94.7483C214.2 94.4398 214.418 94.2031 214.695 94.0382C214.977 93.8679 215.302 93.7828 215.669 93.7828C216.195 93.7828 216.607 93.9531 216.905 94.2935C217.203 94.6286 217.352 95.0914 217.352 95.6819V95.9292H214.432C214.453 96.3708 214.581 96.7085 214.815 96.9426C215.049 97.1713 215.373 97.2857 215.788 97.2857C216.022 97.2857 216.246 97.2511 216.458 97.182C216.671 97.1075 216.873 96.9878 217.065 96.8229L217.288 97.2777C217.113 97.4426 216.889 97.573 216.618 97.6687C216.347 97.7591 216.07 97.8044 215.788 97.8044ZM215.685 94.2616C215.317 94.2616 215.028 94.376 214.815 94.6047C214.602 94.8334 214.477 95.134 214.44 95.5063H216.794C216.778 95.1127 216.674 94.8068 216.482 94.5887C216.296 94.3706 216.03 94.2616 215.685 94.2616ZM218.288 97.7325V93.8546H218.918V94.5169C219.046 94.2722 219.226 94.0887 219.46 93.9664C219.695 93.844 219.958 93.7828 220.25 93.7828C221.171 93.7828 221.631 94.2935 221.631 95.3148V97.7325H220.985V95.3547C220.985 94.993 220.913 94.7297 220.769 94.5648C220.631 94.3946 220.407 94.3095 220.099 94.3095C219.742 94.3095 219.458 94.4212 219.245 94.6446C219.038 94.8627 218.934 95.1553 218.934 95.5223V97.7325H218.288ZM224.195 97.8044C223.264 97.8044 222.799 97.291 222.799 96.2644V93.8546H223.445V96.2564C223.445 96.6022 223.514 96.8575 223.652 97.0224C223.796 97.1873 224.019 97.2697 224.323 97.2697C224.653 97.2697 224.921 97.1607 225.129 96.9426C225.336 96.7192 225.44 96.424 225.44 96.0569V93.8546H226.086V97.7325H225.456V97.0782C225.333 97.3123 225.161 97.4932 224.937 97.6208C224.719 97.7432 224.472 97.8044 224.195 97.8044ZM229.043 97.8044C228.431 97.8044 227.947 97.6262 227.591 97.2697C227.234 96.908 227.056 96.4186 227.056 95.8016C227.056 95.4026 227.136 95.0515 227.295 94.7483C227.455 94.4398 227.673 94.2031 227.95 94.0382C228.232 93.8679 228.556 93.7828 228.923 93.7828C229.45 93.7828 229.862 93.9531 230.16 94.2935C230.458 94.6286 230.607 95.0914 230.607 95.6819V95.9292H227.686C227.708 96.3708 227.835 96.7085 228.069 96.9426C228.303 97.1713 228.628 97.2857 229.043 97.2857C229.277 97.2857 229.5 97.2511 229.713 97.182C229.926 97.1075 230.128 96.9878 230.319 96.8229L230.543 97.2777C230.367 97.4426 230.144 97.573 229.873 97.6687C229.601 97.7591 229.325 97.8044 229.043 97.8044ZM228.939 94.2616C228.572 94.2616 228.282 94.376 228.069 94.6047C227.857 94.8334 227.732 95.134 227.694 95.5063H230.048C230.032 95.1127 229.928 94.8068 229.737 94.5887C229.551 94.3706 229.285 94.2616 228.939 94.2616ZM236.113 97.8044C235.56 97.8044 235.086 97.6873 234.693 97.4533C234.299 97.2192 233.996 96.8867 233.783 96.4559C233.575 96.025 233.472 95.5117 233.472 94.9159C233.472 94.3254 233.575 93.8147 233.783 93.3839C233.996 92.953 234.299 92.6205 234.693 92.3865C235.086 92.1524 235.56 92.0354 236.113 92.0354C236.501 92.0354 236.858 92.0966 237.182 92.2189C237.512 92.3413 237.791 92.5195 238.02 92.7535L237.765 93.2881C237.52 93.0594 237.265 92.8945 236.999 92.7934C236.738 92.687 236.448 92.6338 236.129 92.6338C235.496 92.6338 235.012 92.8333 234.677 93.2323C234.341 93.6312 234.174 94.1924 234.174 94.9159C234.174 95.6446 234.341 96.2085 234.677 96.6075C235.012 97.0064 235.496 97.2059 236.129 97.2059C236.448 97.2059 236.738 97.1554 236.999 97.0543C237.265 96.9479 237.52 96.7804 237.765 96.5516L238.02 97.0862C237.791 97.315 237.512 97.4932 237.182 97.6208C236.858 97.7432 236.501 97.8044 236.113 97.8044ZM240.056 97.8044C239.79 97.8044 239.551 97.7538 239.338 97.6528C239.131 97.5464 238.966 97.4027 238.844 97.2219C238.721 97.041 238.66 96.8389 238.66 96.6155C238.66 96.3335 238.732 96.1101 238.875 95.9452C239.024 95.7803 239.266 95.6633 239.602 95.5941C239.942 95.5196 240.405 95.4824 240.99 95.4824H241.245V95.235C241.245 94.9052 241.176 94.6685 241.038 94.5249C240.905 94.376 240.689 94.3015 240.392 94.3015C240.157 94.3015 239.931 94.3361 239.713 94.4052C239.495 94.469 239.272 94.5754 239.043 94.7244L238.82 94.2536C239.022 94.11 239.266 93.9956 239.554 93.9105C239.846 93.8254 240.126 93.7828 240.392 93.7828C240.892 93.7828 241.261 93.9052 241.501 94.1499C241.745 94.3946 241.868 94.7749 241.868 95.2909V97.7325H241.261V97.0623C241.16 97.291 241.003 97.4719 240.791 97.6049C240.583 97.7379 240.338 97.8044 240.056 97.8044ZM240.16 97.3176C240.479 97.3176 240.74 97.2086 240.942 96.9905C241.144 96.7671 241.245 96.4851 241.245 96.1447V95.9053H240.998C240.567 95.9053 240.227 95.9266 239.977 95.9691C239.732 96.0064 239.559 96.0755 239.458 96.1766C239.362 96.2723 239.314 96.4053 239.314 96.5756C239.314 96.7937 239.389 96.9719 239.538 97.1102C239.692 97.2485 239.899 97.3176 240.16 97.3176ZM244.256 97.8044C243.862 97.8044 243.564 97.69 243.362 97.4613C243.165 97.2272 243.067 96.8894 243.067 96.4479V92.1072H243.713V96.4C243.713 96.9692 243.939 97.2538 244.391 97.2538C244.524 97.2538 244.644 97.2378 244.75 97.2059L244.734 97.7485C244.57 97.7857 244.41 97.8044 244.256 97.8044ZM246.649 97.8044C246.383 97.8044 246.143 97.7538 245.93 97.6528C245.723 97.5464 245.558 97.4027 245.436 97.2219C245.313 97.041 245.252 96.8389 245.252 96.6155C245.252 96.3335 245.324 96.1101 245.468 95.9452C245.617 95.7803 245.859 95.6633 246.194 95.5941C246.534 95.5196 246.997 95.4824 247.582 95.4824H247.838V95.235C247.838 94.9052 247.768 94.6685 247.63 94.5249C247.497 94.376 247.282 94.3015 246.984 94.3015C246.75 94.3015 246.524 94.3361 246.306 94.4052C246.087 94.469 245.864 94.5754 245.635 94.7244L245.412 94.2536C245.614 94.11 245.859 93.9956 246.146 93.9105C246.439 93.8254 246.718 93.7828 246.984 93.7828C247.484 93.7828 247.853 93.9052 248.093 94.1499C248.338 94.3946 248.46 94.7749 248.46 95.2909V97.7325H247.853V97.0623C247.752 97.291 247.595 97.4719 247.383 97.6049C247.175 97.7379 246.931 97.8044 246.649 97.8044ZM246.752 97.3176C247.072 97.3176 247.332 97.2086 247.534 96.9905C247.736 96.7671 247.838 96.4851 247.838 96.1447V95.9053H247.59C247.159 95.9053 246.819 95.9266 246.569 95.9691C246.324 96.0064 246.151 96.0755 246.05 96.1766C245.954 96.2723 245.907 96.4053 245.907 96.5756C245.907 96.7937 245.981 96.9719 246.13 97.1102C246.284 97.2485 246.492 97.3176 246.752 97.3176ZM251.622 97.8044C251.313 97.8044 251.042 97.7352 250.808 97.5969C250.579 97.4586 250.406 97.2697 250.289 97.0304V97.7325H249.659V92.1072H250.305V94.5249C250.417 94.2962 250.59 94.1153 250.824 93.9823C251.058 93.8493 251.324 93.7828 251.622 93.7828C251.968 93.7828 252.268 93.8653 252.524 94.0302C252.784 94.1898 252.984 94.4212 253.122 94.7244C253.266 95.0223 253.337 95.3787 253.337 95.7936C253.337 96.2032 253.266 96.5596 253.122 96.8628C252.984 97.1607 252.784 97.3921 252.524 97.557C252.268 97.7219 251.968 97.8044 251.622 97.8044ZM251.486 97.2857C251.848 97.2857 252.138 97.158 252.356 96.9027C252.574 96.6421 252.683 96.2723 252.683 95.7936C252.683 95.3095 252.574 94.9398 252.356 94.6845C252.138 94.4291 251.848 94.3015 251.486 94.3015C251.124 94.3015 250.835 94.4291 250.616 94.6845C250.398 94.9398 250.289 95.3095 250.289 95.7936C250.289 96.2723 250.398 96.6421 250.616 96.9027C250.835 97.158 251.124 97.2857 251.486 97.2857ZM255.532 97.8044C255.266 97.8044 255.026 97.7538 254.814 97.6528C254.606 97.5464 254.441 97.4027 254.319 97.2219C254.197 97.041 254.135 96.8389 254.135 96.6155C254.135 96.3335 254.207 96.1101 254.351 95.9452C254.5 95.7803 254.742 95.6633 255.077 95.5941C255.417 95.5196 255.88 95.4824 256.465 95.4824H256.721V95.235C256.721 94.9052 256.651 94.6685 256.513 94.5249C256.38 94.376 256.165 94.3015 255.867 94.3015C255.633 94.3015 255.407 94.3361 255.189 94.4052C254.971 94.469 254.747 94.5754 254.518 94.7244L254.295 94.2536C254.497 94.11 254.742 93.9956 255.029 93.9105C255.322 93.8254 255.601 93.7828 255.867 93.7828C256.367 93.7828 256.737 93.9052 256.976 94.1499C257.221 94.3946 257.343 94.7749 257.343 95.2909V97.7325H256.737V97.0623C256.636 97.291 256.479 97.4719 256.266 97.6049C256.058 97.7379 255.814 97.8044 255.532 97.8044ZM255.635 97.3176C255.955 97.3176 256.215 97.2086 256.417 96.9905C256.62 96.7671 256.721 96.4851 256.721 96.1447V95.9053H256.473C256.042 95.9053 255.702 95.9266 255.452 95.9691C255.207 96.0064 255.034 96.0755 254.933 96.1766C254.838 96.2723 254.79 96.4053 254.79 96.5756C254.79 96.7937 254.864 96.9719 255.013 97.1102C255.167 97.2485 255.375 97.3176 255.635 97.3176ZM258.542 97.7325V93.8546H259.172V94.5488C259.38 94.0807 259.805 93.8227 260.449 93.7749L260.681 93.7509L260.728 94.3095L260.321 94.3573C259.954 94.3893 259.675 94.5063 259.484 94.7084C259.292 94.9052 259.196 95.1765 259.196 95.5223V97.7325H258.542Z" fill="#04203D" />
    </g>
    <defs>
        <filter id="filter0_d_1_706" x="0.0415597" y="0.269975" width="282.597" height="125.673" filterUnits="userSpaceOnUse" color-interpolation-filters="sRGB">
            <feFlood flood-opacity="0" result="BackgroundImageFix" />
            <feColorMatrix in="SourceAlpha" type="matrix" values="0 0 0 0 0 0 0 0 0 0 0 0 0 0 0 0 0 0 127 0" result="hardAlpha" />
            <feOffset dx="-2.65974" dy="2.65974" />
            <feGaussianBlur stdDeviation="6.64935" />
            <feComposite in2="hardAlpha" operator="out" />
            <feColorMatrix type="matrix" values="0 0 0 0 0.2 0 0 0 0 0.2 0 0 0 0 0.2 0 0 0 0.05 0" />
            <feBlend mode="normal" in2="BackgroundImageFix" result="effect1_dropShadow_1_706" />
            <feBlend mode="normal" in="SourceGraphic" in2="effect1_dropShadow_1_706" result="shape" />
        </filter>
        <clipPath id="clip0_1_706">
            <rect width="15.9584" height="15.9584" fill="white" transform="translate(32.6257 56.1248)" />
        </clipPath>
        <clipPath id="clip1_1_706">
            <rect width="15.9584" height="15.9584" fill="white" transform="translate(101.779 56.1248)" />
        </clipPath>
        <clipPath id="clip2_1_706">
            <rect width="15.9584" height="15.9584" fill="white" transform="translate(170.932 56.1247)" />
        </clipPath>
    </defs>
</svg>